# xmcd
#
# Track frame offsets: 
#        210
#        21564
#        37984
#        61674
#        85054
#        104703
#        130857
#        149226
#        166496
#        185778
#        205313
#        228284
#
# Disc length: 3295 seconds
#
# Revision: 0
# Processed by: cddbd v1.5.2PL0 Copyright (c) Steve Scherf et al.
# Submitted via: ExactAudioCopyFreeDBPlugin 1.0
#
DISCID=b00cdd0c
DTITLE=Bob Woodruff - The Year We Tried To Kill The Pain
DYEAR=2013
DGENRE=Country
TTITLE0=I Didn't Know
TTITLE1=I'm The Train
TTITLE2=The Year We Tried To Kill the Pain
TTITLE3=Feel The Way I Feel
TTITLE4=There's Something There
TTITLE5=Stop In The Name Of Love
TTITLE6=Bayou Girl
TTITLE7=I'm Losing You
TTITLE8=So Many Teardrops
TTITLE9=Stand In The Way
TTITLE10=Paint The Town Blue
TTITLE11=If I Was Your Man
EXTD=
EXTT0=
EXTT1=
EXTT2=
EXTT3=
EXTT4=
EXTT5=
EXTT6=
EXTT7=
EXTT8=
EXTT9=
EXTT10=
EXTT11=
PLAYORDER=
